<svg xmlns="http://www.w3.org/2000/svg" viewBox="0 0 867.18 163.3"><defs><style>.cls-1{fill:none;stroke:#27a9bf;stroke-miterlimit:10;stroke-width:6px;}.cls-2{fill:#fff;}.cls-3{fill:#4d4d4d;}.cls-4{fill:#27a9bf;}</style></defs><title>irex</title><g id="Layer_2" data-name="Layer 2"><path class="cls-1" d="M150.65,135.15" transform="translate(-7 -5.11)"/><path class="cls-1" d="M149.64,136.41" transform="translate(-7 -5.11)"/><path class="cls-1" d="M20.83,46.9a78.65,78.65,0,0,0,125.9,92.88c.48-.52,1-1.06,1.42-1.6" transform="translate(-7 -5.11)"/><path class="cls-1" d="M22.76,43.79" transform="translate(-7 -5.11)"/><path class="cls-1" d="M157.44,124.9a78.26,78.26,0,0,0,9.86-38.14c0-46-35.21-78.65-78.65-78.65A78.36,78.36,0,0,0,33.74,30.45" transform="translate(-7 -5.11)"/><path class="cls-1" d="M156,124.22" transform="translate(-7 -5.11)"/><path class="cls-1" d="M154.81,123.63" transform="translate(-7 -5.11)"/></g><g id="Layer_3" data-name="Layer 3"><path class="cls-2" d="M150.87,129.5" transform="translate(-7 -5.11)"/></g><g id="Layer_6" data-name="Layer 6"><path class="cls-3" d="M190.11,30.13h14.1v58h-14.1Z" transform="translate(-7 -5.11)"/><path class="cls-3" d="M227.52,68.16H222.3v20H208.21v-58h23.66c11.31,0,18.53,8.18,18.53,18.88,0,9.84-5,14.8-9.39,16.71l9.83,22.45H235.18Zm2.18-25.93h-7.4V56.06h7.4c3.74,0,6.43-2.7,6.43-6.87C236.13,44.84,233.44,42.23,229.7,42.23Z" transform="translate(-7 -5.11)"/><path class="cls-3" d="M252.84,30.13h26.45c11,0,15.83,7.31,15.83,14.79,0,7.23-4.09,12-9.57,13.32,6,.95,10.53,7,10.53,14.18,0,8.52-5,15.75-15.92,15.75H252.84Zm23,22.8c3.22,0,5-2.35,5-5.57s-1.74-5.57-5-5.57h-8.88V52.93Zm.43,23.58c3.48,0,5.48-2.35,5.48-6,0-3.21-2-5.91-5.48-5.91h-9.31V76.51Z" transform="translate(-7 -5.11)"/><path class="cls-3" d="M330.09,68.16h-5.22v20H310.78v-58h23.66C345.75,30.13,353,38.31,353,49c0,9.84-5,14.8-9.39,16.71l9.83,22.45H337.75Zm2.18-25.93h-7.4V56.06h7.4c3.74,0,6.44-2.7,6.44-6.87C338.71,44.84,336,42.23,332.27,42.23Z" transform="translate(-7 -5.11)"/><path class="cls-3" d="M370.29,45.1c11.83,0,18.79,9.13,18.79,22.62V71.2H363.24c.43,4.35,3.39,8.09,9.22,8.09a12.52,12.52,0,0,0,8.62-3.65l5.56,7.57c-3.91,4-10,6-15.66,6-12.18,0-20.36-8.7-20.36-22.1C350.62,54.93,358.11,45.1,370.29,45.1Zm-7.14,17.66h13.92c-.17-3.39-1.74-7.74-7-7.74C365.07,55,363.41,59.37,363.15,62.76Z" transform="translate(-7 -5.11)"/><path class="cls-3" d="M389.69,30.13H402.3v58H389.69Z" transform="translate(-7 -5.11)"/><path class="cls-3" d="M404.48,33.53a7.27,7.27,0,1,1,7.3,7.31A7.29,7.29,0,0,1,404.48,33.53Zm.95,12.61h12.62v42H405.43Z" transform="translate(-7 -5.11)"/><path class="cls-3" d="M443.11,84.08c-2.27,3.13-6.79,5.13-11.05,5.13-6.62,0-13.14-4.78-13.14-13.92,0-9.4,6.52-13.4,13.14-13.4,4.35,0,8.87,1.74,11.05,4.79V61.8c0-3.91-2.7-6.52-7.4-6.52a16,16,0,0,0-10.35,4.35l-4.44-8.44c4.7-4.35,11.66-6.09,17.23-6.09,9.57,0,17.48,4.09,17.48,15.4V88.17H443.11Zm0-10.7A6.89,6.89,0,0,0,437,70.07c-3.22,0-5.57,2-5.57,5.39s2.35,5.48,5.57,5.48a6.9,6.9,0,0,0,6.09-3.3Z" transform="translate(-7 -5.11)"/><path class="cls-3" d="M482.78,61.63c0-3.83-1.83-5.39-4.88-5.39s-5.3,2.26-6.52,4.43v27.5H458.76v-42h12.62v5.22a15.36,15.36,0,0,1,12.35-6.26c8.1,0,11.66,4.78,11.66,11.57v31.5H482.78Z" transform="translate(-7 -5.11)"/><path class="cls-3" d="M516.36,45.1c7,0,11.83,2.87,14.09,5.74l-6.09,8.61a8.1,8.1,0,0,0-6.52-3.21c-5.14,0-8.62,4.35-8.62,10.87s3.48,11,8.62,11a7.94,7.94,0,0,0,6.52-3.3l6.09,8.7c-2.26,2.87-7,5.74-14.09,5.74-11.83,0-20-9-20-22.1S504.53,45.1,516.36,45.1Z" transform="translate(-7 -5.11)"/><path class="cls-3" d="M547.94,45.1c11.83,0,18.79,9.13,18.79,22.62V71.2H540.89c.44,4.35,3.39,8.09,9.22,8.09a12.52,12.52,0,0,0,8.62-3.65l5.56,7.57c-3.91,4-10,6-15.66,6-12.18,0-20.36-8.7-20.36-22.1C528.27,54.93,535.76,45.1,547.94,45.1ZM540.8,62.76h13.92c-.17-3.39-1.74-7.74-7-7.74C542.72,55,541.06,59.37,540.8,62.76Z" transform="translate(-7 -5.11)"/><path class="cls-4" d="M580.56,30.13h35v12.1H594.65V52.67h20.28V64.76H594.65V76.07h20.89v12.1h-35Z" transform="translate(-7 -5.11)"/><path class="cls-4" d="M633.2,75.55l-6.53,12.62H613.1l12.18-21.32L613.79,46.14h13.58L633.11,58l5.83-11.84h13.57L641,66.85l12.18,21.32H639.55Z" transform="translate(-7 -5.11)"/><path class="cls-4" d="M664.86,45.1c7,0,11.84,2.87,14.1,5.74l-6.09,8.61a8.11,8.11,0,0,0-6.53-3.21c-5.13,0-8.61,4.35-8.61,10.87s3.48,11,8.61,11a7.94,7.94,0,0,0,6.53-3.3l6.09,8.7c-2.26,2.87-7.05,5.74-14.1,5.74-11.83,0-20-9-20-22.1S653,45.1,664.86,45.1Z" transform="translate(-7 -5.11)"/><path class="cls-4" d="M703.06,61.46c0-3.83-1.83-5.22-5-5.22s-5.31,2.26-6.53,4.43v27.5H679v-58h12.53V51.36A15.55,15.55,0,0,1,704,45.1c8.09,0,11.57,4.61,11.57,11.4V88.17H703.06Z" transform="translate(-7 -5.11)"/><path class="cls-4" d="M740.73,84.08c-2.27,3.13-6.79,5.13-11.05,5.13-6.62,0-13.14-4.78-13.14-13.92,0-9.4,6.52-13.4,13.14-13.4,4.35,0,8.87,1.74,11.05,4.79V61.8c0-3.91-2.7-6.52-7.4-6.52A16,16,0,0,0,723,59.63l-4.44-8.44c4.7-4.35,11.66-6.09,17.23-6.09,9.57,0,17.48,4.09,17.48,15.4V88.17H740.73Zm0-10.7a6.89,6.89,0,0,0-6.09-3.31c-3.22,0-5.57,2-5.57,5.39s2.35,5.48,5.57,5.48a6.9,6.9,0,0,0,6.09-3.3Z" transform="translate(-7 -5.11)"/><path class="cls-4" d="M780.4,61.63c0-3.83-1.83-5.39-4.87-5.39s-5.31,2.26-6.53,4.43v27.5H756.38v-42H769v5.22a15.36,15.36,0,0,1,12.35-6.26c8.1,0,11.66,4.78,11.66,11.57v31.5H780.4Z" transform="translate(-7 -5.11)"/><path class="cls-4" d="M800.49,90.34a14.69,14.69,0,0,0,10.79,4.35c4.18,0,8.79-2.17,8.79-9.13V81.29c-2.7,4.18-6.44,6.09-10.35,6.09-9.4,0-15.75-7.13-15.75-21.14,0-13.66,6.26-21.14,15.75-21.14a12,12,0,0,1,10.35,6v-5H832.6V85.3c0,16.09-11.14,19.92-20.71,19.92-6.44,0-11.66-1.57-16.18-5.48Zm19.58-30.28A7.44,7.44,0,0,0,814,56.24c-4.61,0-7.14,3.65-7.14,10s2.53,10.09,7.14,10.09a7.34,7.34,0,0,0,6.09-3.91Z" transform="translate(-7 -5.11)"/><path class="cls-4" d="M853.3,45.1c11.83,0,18.8,9.13,18.8,22.62V71.2H846.25c.44,4.35,3.4,8.09,9.23,8.09a12.5,12.5,0,0,0,8.61-3.65l5.57,7.57c-3.92,4-10,6-15.66,6-12.18,0-20.36-8.7-20.36-22.1C833.64,54.93,841.12,45.1,853.3,45.1Zm-7.13,17.66h13.92c-.18-3.39-1.74-7.74-7-7.74C848.08,55,846.43,59.37,846.17,62.76Z" transform="translate(-7 -5.11)"/><path d="M192.13,127.62l-6.86-10.48h2.78l5.17,8.32,5.33-8.32h2.63l-6.87,10.48v7.93h-2.18Z" transform="translate(-7 -5.11)"/><path d="M213.48,136a10.05,10.05,0,0,1-3.86-.72,9.28,9.28,0,0,1-3.05-2,9.07,9.07,0,0,1-2-3.07,10.85,10.85,0,0,1,0-7.72,9.07,9.07,0,0,1,2-3.07,9.26,9.26,0,0,1,3.05-2,10.57,10.57,0,0,1,7.72,0,9.32,9.32,0,0,1,3,2,9.07,9.07,0,0,1,2,3.07,10.71,10.71,0,0,1,0,7.72,9.07,9.07,0,0,1-2,3.07,9.35,9.35,0,0,1-3,2A10.09,10.09,0,0,1,213.48,136Zm0-2a7.17,7.17,0,0,0,3-.6,7,7,0,0,0,2.3-1.64,7.34,7.34,0,0,0,1.49-2.43,8.47,8.47,0,0,0,0-5.95,7.48,7.48,0,0,0-1.49-2.44,7,7,0,0,0-2.3-1.63,7.24,7.24,0,0,0-8.21,1.63,7.48,7.48,0,0,0-1.49,2.44,8.61,8.61,0,0,0,0,5.95,7.34,7.34,0,0,0,1.49,2.43,7,7,0,0,0,5.26,2.24Z" transform="translate(-7 -5.11)"/><path d="M242.1,128.53a10.29,10.29,0,0,1-.38,2.86,6.58,6.58,0,0,1-1.19,2.38,5.74,5.74,0,0,1-2.15,1.63,8.8,8.8,0,0,1-6.44,0,5.74,5.74,0,0,1-2.15-1.63,6.94,6.94,0,0,1-1.2-2.38,10.68,10.68,0,0,1-.37-2.86V117.14h2.18v11.07a9.53,9.53,0,0,0,.24,2.16,5.12,5.12,0,0,0,.78,1.85,3.86,3.86,0,0,0,1.45,1.29,5.7,5.7,0,0,0,4.58,0,3.94,3.94,0,0,0,1.45-1.29,5.12,5.12,0,0,0,.78-1.85,9.53,9.53,0,0,0,.24-2.16V117.14h2.18Z" transform="translate(-7 -5.11)"/><path d="M248.29,117.14H253a23.06,23.06,0,0,1,2.63.15A7.21,7.21,0,0,1,258,118a4.41,4.41,0,0,1,1.69,1.52,5,5,0,0,1,.65,2.72,4.53,4.53,0,0,1-1.22,3.28,5.86,5.86,0,0,1-3.38,1.58l5.22,8.48h-2.68l-5-8.27h-2.81v8.27h-2.18Zm2.18,8.11h1.95c.61,0,1.24,0,1.89,0a6.62,6.62,0,0,0,1.79-.34,3.13,3.13,0,0,0,1.36-.9,2.6,2.6,0,0,0,.53-1.75,2.88,2.88,0,0,0-.39-1.59,2.62,2.62,0,0,0-1-.92,4.27,4.27,0,0,0-1.43-.43,12.17,12.17,0,0,0-1.6-.1h-3.07Z" transform="translate(-7 -5.11)"/><path d="M283.52,120.39a3.2,3.2,0,0,0-1.46-1.29,4.58,4.58,0,0,0-1.89-.4,5.66,5.66,0,0,0-1.43.18,4.15,4.15,0,0,0-1.27.55,2.65,2.65,0,0,0-.89,1,2.77,2.77,0,0,0-.34,1.4,2.93,2.93,0,0,0,.19,1.11,2.39,2.39,0,0,0,.64.87,4.87,4.87,0,0,0,1.2.73,16.15,16.15,0,0,0,1.84.67c.71.23,1.4.47,2.07.73a6.88,6.88,0,0,1,1.77,1,4.42,4.42,0,0,1,1.22,1.49,5.7,5.7,0,0,1-.09,4.64,5.11,5.11,0,0,1-1.44,1.68,6.4,6.4,0,0,1-2.07,1,8.88,8.88,0,0,1-2.42.32,8.76,8.76,0,0,1-1.61-.14,7.43,7.43,0,0,1-1.55-.44,6.34,6.34,0,0,1-1.39-.78,4.84,4.84,0,0,1-1.12-1.18l1.88-1.54a3.81,3.81,0,0,0,1.66,1.54,5.17,5.17,0,0,0,2.26.52,5,5,0,0,0,1.42-.21,4.5,4.5,0,0,0,1.29-.61,3.29,3.29,0,0,0,.93-1,2.64,2.64,0,0,0,.37-1.38,2.93,2.93,0,0,0-.29-1.39,2.67,2.67,0,0,0-.88-.93,7.12,7.12,0,0,0-1.51-.7l-2.13-.73a12.1,12.1,0,0,1-1.82-.71,5.63,5.63,0,0,1-1.45-1,4.16,4.16,0,0,1-1-1.4,5.07,5.07,0,0,1-.35-2,4.75,4.75,0,0,1,1.92-4,6.31,6.31,0,0,1,2-1,7.84,7.84,0,0,1,2.34-.34,8.06,8.06,0,0,1,2.84.48,5.5,5.5,0,0,1,2.3,1.68Z" transform="translate(-7 -5.11)"/><path d="M295.27,127.62l-6.86-10.48h2.78l5.17,8.32,5.33-8.32h2.63l-6.86,10.48v7.93h-2.19Z" transform="translate(-7 -5.11)"/><path d="M316.8,120.39a3.2,3.2,0,0,0-1.46-1.29,4.58,4.58,0,0,0-1.89-.4,5.66,5.66,0,0,0-1.43.18,4.15,4.15,0,0,0-1.27.55,2.65,2.65,0,0,0-.89,1,2.77,2.77,0,0,0-.34,1.4,2.93,2.93,0,0,0,.19,1.11,2.39,2.39,0,0,0,.64.87,4.87,4.87,0,0,0,1.2.73,16.89,16.89,0,0,0,1.84.67c.71.23,1.4.47,2.07.73a6.88,6.88,0,0,1,1.77,1,4.42,4.42,0,0,1,1.22,1.49,5.11,5.11,0,0,1-1.53,6.32,6.4,6.4,0,0,1-2.07,1,8.88,8.88,0,0,1-2.42.32,8.76,8.76,0,0,1-1.61-.14,7.43,7.43,0,0,1-1.55-.44,6.34,6.34,0,0,1-1.39-.78,5,5,0,0,1-1.12-1.18l1.88-1.54a3.81,3.81,0,0,0,1.66,1.54,5.17,5.17,0,0,0,2.26.52,5,5,0,0,0,1.42-.21,4.38,4.38,0,0,0,1.29-.61,3.29,3.29,0,0,0,.93-1,2.64,2.64,0,0,0,.37-1.38,2.93,2.93,0,0,0-.29-1.39,2.67,2.67,0,0,0-.88-.93,7.12,7.12,0,0,0-1.51-.7l-2.13-.73a12.1,12.1,0,0,1-1.82-.71,5.63,5.63,0,0,1-1.45-1,4.16,4.16,0,0,1-1-1.4,5.07,5.07,0,0,1-.35-2,4.75,4.75,0,0,1,1.92-4,6.31,6.31,0,0,1,2-1,7.84,7.84,0,0,1,2.34-.34,8.06,8.06,0,0,1,2.84.48,5.5,5.5,0,0,1,2.3,1.68Z" transform="translate(-7 -5.11)"/><path d="M336.56,119.17h-6.09v16.38h-2.18V119.17h-6.08v-2h14.35Z" transform="translate(-7 -5.11)"/><path d="M340.82,117.14h11.57v2H343v5.77h8.76v2H343v6.55h9.85v2h-12Z" transform="translate(-7 -5.11)"/><path d="M357.93,117.14h3.25l6.24,14.43h.05l6.29-14.43h3.18v18.41h-2.19V120.1h-.05l-6.6,15.45h-1.33l-6.6-15.45h-.06v15.45h-2.18Z" transform="translate(-7 -5.11)"/><path d="M400.86,120.39a3.25,3.25,0,0,0-1.46-1.29,4.63,4.63,0,0,0-1.9-.4,5.78,5.78,0,0,0-1.43.18,4.09,4.09,0,0,0-1.26.55,2.65,2.65,0,0,0-.89,1,2.77,2.77,0,0,0-.34,1.4,2.93,2.93,0,0,0,.19,1.11,2.28,2.28,0,0,0,.64.87,4.69,4.69,0,0,0,1.2.73,16.15,16.15,0,0,0,1.84.67c.71.23,1.4.47,2.07.73a7,7,0,0,1,1.77,1,4.54,4.54,0,0,1,1.22,1.49A5.09,5.09,0,0,1,401,134.7a6.25,6.25,0,0,1-2.06,1,8.88,8.88,0,0,1-2.42.32,8.68,8.68,0,0,1-1.61-.14,7.27,7.27,0,0,1-1.55-.44,6.34,6.34,0,0,1-1.39-.78,4.84,4.84,0,0,1-1.12-1.18l1.87-1.54a3.88,3.88,0,0,0,1.67,1.54,5.17,5.17,0,0,0,2.26.52,5,5,0,0,0,1.42-.21,4.32,4.32,0,0,0,1.28-.61,3.32,3.32,0,0,0,.94-1,2.63,2.63,0,0,0,.36-1.38,2.94,2.94,0,0,0-.28-1.39,2.62,2.62,0,0,0-.89-.93,7,7,0,0,0-1.5-.7l-2.14-.73a12.54,12.54,0,0,1-1.82-.71,5.74,5.74,0,0,1-1.44-1,4.16,4.16,0,0,1-1-1.4,5.54,5.54,0,0,1,.17-4.28,4.75,4.75,0,0,1,1.4-1.65,6.37,6.37,0,0,1,2-1,7.93,7.93,0,0,1,2.34-.34,8.12,8.12,0,0,1,2.85.48,5.56,5.56,0,0,1,2.3,1.68Z" transform="translate(-7 -5.11)"/><path d="M416.82,136a10.09,10.09,0,0,1-3.86-.72,9.35,9.35,0,0,1-3-2,8.92,8.92,0,0,1-2-3.07,10.71,10.71,0,0,1,0-7.72,8.92,8.92,0,0,1,2-3.07,9.32,9.32,0,0,1,3-2,10.57,10.57,0,0,1,7.72,0,9.22,9.22,0,0,1,3,2,9.09,9.09,0,0,1,2,3.07,10.85,10.85,0,0,1,0,7.72,9.09,9.09,0,0,1-2,3.07,9.24,9.24,0,0,1-3,2A10.09,10.09,0,0,1,416.82,136Zm0-2a7,7,0,0,0,5.25-2.24,7.53,7.53,0,0,0,1.5-2.43,8.61,8.61,0,0,0,0-5.95,7.68,7.68,0,0,0-1.5-2.44,7,7,0,0,0-2.3-1.63,7.55,7.55,0,0,0-5.9,0,7,7,0,0,0-2.3,1.63,7.68,7.68,0,0,0-1.5,2.44,8.61,8.61,0,0,0,0,5.95,7.53,7.53,0,0,0,1.5,2.43,7,7,0,0,0,2.3,1.64A7.14,7.14,0,0,0,416.82,134Z" transform="translate(-7 -5.11)"/><path d="M431.64,117.14h2.18v16.38h8.43v2H431.64Z" transform="translate(-7 -5.11)"/><path d="M460.14,128.53a10.68,10.68,0,0,1-.38,2.86,6.6,6.6,0,0,1-1.2,2.38,5.7,5.7,0,0,1-2.14,1.63,8.83,8.83,0,0,1-6.45,0,5.7,5.7,0,0,1-2.14-1.63,6.6,6.6,0,0,1-1.2-2.38,10.68,10.68,0,0,1-.38-2.86V117.14h2.19v11.07a9.54,9.54,0,0,0,.23,2.16,5.49,5.49,0,0,0,.78,1.85,4,4,0,0,0,1.46,1.29,5.68,5.68,0,0,0,4.57,0,3.89,3.89,0,0,0,1.46-1.29,5.49,5.49,0,0,0,.78-1.85,9.54,9.54,0,0,0,.23-2.16V117.14h2.19Z" transform="translate(-7 -5.11)"/><path d="M478.67,119.17h-6.08v16.38h-2.18V119.17h-6.09v-2h14.35Z" transform="translate(-7 -5.11)"/><path d="M482.94,117.14h2.18v18.41h-2.18Z" transform="translate(-7 -5.11)"/><path d="M499.94,136a10.09,10.09,0,0,1-3.86-.72,9.35,9.35,0,0,1-3-2,8.92,8.92,0,0,1-2-3.07,10.71,10.71,0,0,1,0-7.72,8.92,8.92,0,0,1,2-3.07,9.32,9.32,0,0,1,3-2,10.57,10.57,0,0,1,7.72,0,9.36,9.36,0,0,1,3.05,2,9.22,9.22,0,0,1,2,3.07,10.85,10.85,0,0,1,0,7.72,9.22,9.22,0,0,1-2,3.07,9.39,9.39,0,0,1-3.05,2A10.05,10.05,0,0,1,499.94,136Zm0-2a7.1,7.1,0,0,0,2.95-.6,6.94,6.94,0,0,0,2.3-1.64,7.36,7.36,0,0,0,1.5-2.43,8.61,8.61,0,0,0,0-5.95,7.51,7.51,0,0,0-1.5-2.44,6.92,6.92,0,0,0-2.3-1.63,7.55,7.55,0,0,0-5.9,0,7,7,0,0,0-2.3,1.63,7.48,7.48,0,0,0-1.49,2.44,8.47,8.47,0,0,0,0,5.95,7.34,7.34,0,0,0,1.49,2.43,7,7,0,0,0,2.3,1.64A7.14,7.14,0,0,0,499.94,134Z" transform="translate(-7 -5.11)"/><path d="M514.76,117.14h2.76l10.66,15.29h.05V117.14h2.19v18.41h-2.76L517,120.26h0v15.29h-2.19Z" transform="translate(-7 -5.11)"/><path d="M545.6,117.14H557v2h-9.23v6.08h8.58v2h-8.58v8.27H545.6Z" transform="translate(-7 -5.11)"/><path d="M570.3,136a10.05,10.05,0,0,1-3.86-.72,9.24,9.24,0,0,1-3-2,9.09,9.09,0,0,1-2-3.07,10.85,10.85,0,0,1,0-7.72,9.09,9.09,0,0,1,2-3.07,9.22,9.22,0,0,1,3-2,10.57,10.57,0,0,1,7.72,0,9.32,9.32,0,0,1,3,2,8.92,8.92,0,0,1,2,3.07,10.71,10.71,0,0,1,0,7.72,8.92,8.92,0,0,1-2,3.07,9.35,9.35,0,0,1-3,2A10.09,10.09,0,0,1,570.3,136Zm0-2a7.14,7.14,0,0,0,3-.6,7,7,0,0,0,2.3-1.64,7.34,7.34,0,0,0,1.49-2.43,8.47,8.47,0,0,0,0-5.95,7.48,7.48,0,0,0-1.49-2.44,7,7,0,0,0-2.3-1.63,7.55,7.55,0,0,0-5.9,0,6.92,6.92,0,0,0-2.3,1.63,7.51,7.51,0,0,0-1.5,2.44,8.61,8.61,0,0,0,0,5.95,7.36,7.36,0,0,0,1.5,2.43,6.94,6.94,0,0,0,2.3,1.64A7.1,7.1,0,0,0,570.3,134Z" transform="translate(-7 -5.11)"/><path d="M585.12,117.14h4.7a23.1,23.1,0,0,1,2.64.15,7.21,7.21,0,0,1,2.36.68,4.41,4.41,0,0,1,1.69,1.52,5,5,0,0,1,.65,2.72,4.49,4.49,0,0,1-1.23,3.28,5.8,5.8,0,0,1-3.38,1.58l5.23,8.48H595.1l-5-8.27H587.3v8.27h-2.18Zm2.18,8.11h2c.61,0,1.24,0,1.89,0a6.69,6.69,0,0,0,1.79-.34,3,3,0,0,0,1.35-.9,2.55,2.55,0,0,0,.54-1.75,2.88,2.88,0,0,0-.39-1.59,2.69,2.69,0,0,0-1-.92,4.34,4.34,0,0,0-1.43-.43,12.17,12.17,0,0,0-1.6-.1H587.3Z" transform="translate(-7 -5.11)"/><path d="M620.35,120.39a3.25,3.25,0,0,0-1.46-1.29,4.6,4.6,0,0,0-1.9-.4,5.78,5.78,0,0,0-1.43.18,4.2,4.2,0,0,0-1.26.55,2.65,2.65,0,0,0-.89,1,2.77,2.77,0,0,0-.34,1.4,2.93,2.93,0,0,0,.19,1.11,2.39,2.39,0,0,0,.64.87,4.69,4.69,0,0,0,1.2.73,16.15,16.15,0,0,0,1.84.67c.71.23,1.4.47,2.07.73a6.88,6.88,0,0,1,1.77,1,4.42,4.42,0,0,1,1.22,1.49,5.09,5.09,0,0,1-1.54,6.32,6.25,6.25,0,0,1-2.06,1A8.88,8.88,0,0,1,616,136a8.76,8.76,0,0,1-1.61-.14,7.43,7.43,0,0,1-1.55-.44,6.34,6.34,0,0,1-1.39-.78,4.84,4.84,0,0,1-1.12-1.18l1.87-1.54a3.88,3.88,0,0,0,1.67,1.54,5.17,5.17,0,0,0,2.26.52,5,5,0,0,0,1.42-.21,4.32,4.32,0,0,0,1.28-.61,3.2,3.2,0,0,0,.94-1,2.63,2.63,0,0,0,.36-1.38,2.94,2.94,0,0,0-.28-1.39,2.62,2.62,0,0,0-.89-.93,7,7,0,0,0-1.5-.7L615.3,127a13,13,0,0,1-1.82-.71,5.74,5.74,0,0,1-1.44-1,4.16,4.16,0,0,1-1-1.4,5.07,5.07,0,0,1-.35-2,4.86,4.86,0,0,1,.52-2.31,4.75,4.75,0,0,1,1.4-1.65,6.37,6.37,0,0,1,2-1,7.93,7.93,0,0,1,2.34-.34,8.12,8.12,0,0,1,2.85.48,5.5,5.5,0,0,1,2.3,1.68Z" transform="translate(-7 -5.11)"/><path d="M627.76,117.14h2.18v18.41h-2.18Z" transform="translate(-7 -5.11)"/><path d="M636.21,117.14H639l10.66,15.29h.06V117.14h2.18v18.41H649.1l-10.66-15.29h-.05v15.29h-2.18Z" transform="translate(-7 -5.11)"/><path d="M673.78,134.3a13.08,13.08,0,0,1-3.34,1.3,15.23,15.23,0,0,1-3.55.41,10.68,10.68,0,0,1-3.95-.7,9.17,9.17,0,0,1-3.11-2,8.74,8.74,0,0,1-2-3.06,10.24,10.24,0,0,1-.73-3.94,10,10,0,0,1,.77-4,8.76,8.76,0,0,1,2.12-3,9.88,9.88,0,0,1,3.14-2,10.74,10.74,0,0,1,3.88-.7,11,11,0,0,1,3.49.55,7.54,7.54,0,0,1,3,1.87l-1.64,1.71a6.28,6.28,0,0,0-2.28-1.55,7.06,7.06,0,0,0-2.74-.55,7.48,7.48,0,0,0-2.94.57,7.18,7.18,0,0,0-2.35,1.59,7.06,7.06,0,0,0-1.56,2.41,8.3,8.3,0,0,0-.56,3.07,8.18,8.18,0,0,0,.56,3,7,7,0,0,0,4,4,8.19,8.19,0,0,0,3.1.57,10.36,10.36,0,0,0,2.34-.28,9,9,0,0,0,2.23-.79v-5.64h-4.23v-2h6.42Z" transform="translate(-7 -5.11)"/><path d="M680,117.14h2.19v16.38h8.42v2H680Z" transform="translate(-7 -5.11)"/><path d="M694.73,117.14H706.3v2h-9.38v5.77h8.76v2h-8.76v6.55h9.85v2h-12Z" transform="translate(-7 -5.11)"/><path d="M720.76,117.14h2.18v18.41h-2.18Z" transform="translate(-7 -5.11)"/><path d="M729.21,117.14h4.71a23.06,23.06,0,0,1,2.63.15,7.21,7.21,0,0,1,2.36.68,4.41,4.41,0,0,1,1.69,1.52,5,5,0,0,1,.65,2.72,4.49,4.49,0,0,1-1.23,3.28,5.8,5.8,0,0,1-3.38,1.58l5.23,8.48h-2.68l-5-8.27h-2.81v8.27h-2.18Zm2.18,8.11h2c.61,0,1.24,0,1.89,0a6.62,6.62,0,0,0,1.79-.34,3,3,0,0,0,1.35-.9,2.55,2.55,0,0,0,.54-1.75,2.88,2.88,0,0,0-.39-1.59,2.69,2.69,0,0,0-1-.92,4.27,4.27,0,0,0-1.43-.43,12.17,12.17,0,0,0-1.6-.1h-3.07Z" transform="translate(-7 -5.11)"/><path d="M746.79,117.14h5.61a11.13,11.13,0,0,1,2.24.23,6.36,6.36,0,0,1,2,.77,4.39,4.39,0,0,1,1.39,1.39,4,4,0,0,1,.53,2.13,4,4,0,0,1-.87,2.67,4.66,4.66,0,0,1-2.35,1.49v.06a4.58,4.58,0,0,1,3,1.42,4.13,4.13,0,0,1,.87,1.4,4.51,4.51,0,0,1,.32,1.7,4.62,4.62,0,0,1-.64,2.52,4.8,4.8,0,0,1-1.66,1.57,7.18,7.18,0,0,1-2.32.82,13.94,13.94,0,0,1-2.56.24h-5.48Zm2.18,7.8h3a11,11,0,0,0,1.52-.11,3.77,3.77,0,0,0,1.33-.42,2.64,2.64,0,0,0,1-.91,2.94,2.94,0,0,0,.36-1.55,2.51,2.51,0,0,0-.34-1.39,2.42,2.42,0,0,0-.89-.85,3.94,3.94,0,0,0-1.28-.43,9.87,9.87,0,0,0-1.44-.11H749Zm0,8.58h3.69a7.83,7.83,0,0,0,1.6-.17,4.48,4.48,0,0,0,1.43-.55,3.12,3.12,0,0,0,1-1,2.75,2.75,0,0,0,.39-1.5,3.17,3.17,0,0,0-.38-1.61,3,3,0,0,0-1-1,4.14,4.14,0,0,0-1.4-.55,8.75,8.75,0,0,0-1.63-.15H749Z" transform="translate(-7 -5.11)"/><path d="M773.77,117.14h4.71a23.36,23.36,0,0,1,2.64.15,7.16,7.16,0,0,1,2.35.68,4.33,4.33,0,0,1,1.69,1.52,5,5,0,0,1,.65,2.72,4.53,4.53,0,0,1-1.22,3.28,5.83,5.83,0,0,1-3.38,1.58l5.22,8.48h-2.67l-5-8.27H776v8.27h-2.19Zm2.19,8.11h1.95c.6,0,1.23,0,1.88,0a6.62,6.62,0,0,0,1.79-.34,3.13,3.13,0,0,0,1.36-.9,2.6,2.6,0,0,0,.53-1.75,2.88,2.88,0,0,0-.39-1.59,2.62,2.62,0,0,0-1-.92,4.27,4.27,0,0,0-1.43-.43,12.17,12.17,0,0,0-1.6-.1H776Z" transform="translate(-7 -5.11)"/><path d="M791.35,117.14h11.57v2h-9.39v5.77h8.76v2h-8.76v6.55h9.86v2h-12Z" transform="translate(-7 -5.11)"/><path d="M805.93,117.14h2.47l5.67,15.13h0L820,117.14h2.32l-7.2,18.41H813Z" transform="translate(-7 -5.11)"/><path d="M826,117.14h2.19v18.41H826Z" transform="translate(-7 -5.11)"/><path d="M834.48,117.14h11.57v2h-9.38v5.77h8.76v2h-8.76v6.55h9.85v2h-12Z" transform="translate(-7 -5.11)"/><path d="M849.46,117.14h2.42l4.18,15.29h.05l4.53-15.29h2.44l4.5,15.29h0l4.27-15.29h2.28l-5.4,18.41h-2.37L861.86,120h-.05l-4.58,15.6h-2.39Z" transform="translate(-7 -5.11)"/></g><g id="Layer_4" data-name="Layer 4"><path d="M30,58.94H40.86V109.8H30Z" transform="translate(-7 -5.11)"/><path d="M63.59,91.58H55.66V109.8H44.83V58.94H68.62c10.6,0,17.08,6.94,17.08,16.39,0,9-5.64,13.81-11.13,15.1L86,109.8H73.58ZM67,68.24H55.66v14H67c4.35,0,7.63-2.74,7.63-7S71.37,68.24,67,68.24Z" transform="translate(-7 -5.11)"/><path d="M87.76,58.94h36v9.3H98.59V79.3h24.63v9.3H98.59v11.82h25.17v9.38h-36Z" transform="translate(-7 -5.11)"/><path d="M136.73,99.68l-6.89,10.12h-8.75L131.7,94.41l-10-14.59h8.81l6.21,9.25,6.15-9.25h8.81L141.63,94.41l10.74,15.39h-8.81Z" transform="translate(-7 -5.11)"/></g><g id="Layer_5" data-name="Layer 5"><polygon class="cls-4" points="16.07 31.95 45.48 27.64 25.64 22.25 16.07 31.95"/><polygon class="cls-4" points="149.16 129.47 119.76 133.81 139.6 139.18 149.16 129.47"/></g></svg>